<?xml version="1.0" encoding="UTF-8"?>
<!-- Generator: visioncortex VTracer 0.6.3 -->
<svg version="1.1" xmlns="http://www.w3.org/2000/svg" width="1280" height="674">
<path d="M0 0 C422.4 0 844.8 0 1280 0 C1280 222.42 1280 444.84 1280 674 C857.6 674 435.2 674 0 674 C0 451.58 0 229.16 0 0 Z " fill="#F9FCFE" transform="translate(0,0)"/>
<path d="M0 0 C14.2 -0.35 14.2 -0.35 21 2 C22.48 2.29 23.96 2.56 25.44 2.81 C43.31 6.4 63.57 14.11 76 28 C76 28.66 76 29.32 76 30 C76.59 30.28 77.18 30.55 77.78 30.84 C93 38.8 103.17 59.25 108.26 74.88 C122.11 120.46 108.4 168.2 87 209 C77.86 225.97 67.28 242.14 55 257 C53.69 258.67 52.37 260.33 51.06 262 C44.2 270.56 36.65 278.49 29.14 286.47 C26.26 289.53 23.45 292.62 20.71 295.81 C16.28 300.9 11.52 305.66 6.75 310.44 C5.87 311.33 4.99 312.22 4.09 313.13 C-1.21 318.44 -6.67 323.33 -12.53 328.01 C-15.07 330.06 -17.53 332.18 -19.98 334.35 C-28.23 341.62 -37.03 348.1 -45.96 354.52 C-47.61 355.72 -49.24 356.94 -50.87 358.16 C-56.32 362.2 -62.09 365.13 -68.17 368.09 C-73.43 370.67 -78.35 373.41 -83 377 C-83.98 377.69 -83.98 377.69 -84.99 378.4 C-91.38 383.61 -92.04 391.24 -93 399 C-93.49 404.76 -93.48 410.53 -93.44 416.31 C-93.44 417.08 -93.43 417.84 -93.43 418.63 C-93.38 430.21 -92.4 440.9 -89 452 C-88.4 454.27 -87.82 456.54 -87.25 458.81 C-87.01 459.71 -86.77 460.6 -86.52 461.52 C-86 464 -86 464 -86.03 466.53 C-86 469.34 -85.35 471.12 -84.25 473.69 C-83.88 474.57 -83.51 475.45 -83.12 476.35 C-82.75 477.23 -82.38 478.1 -82 479 C-81.41 480.52 -80.83 482.04 -80.25 483.56 C-73.24 501.01 -64.63 517.17 -53 532 C-52.38 532.84 -51.76 533.67 -51.12 534.54 C-47.95 538.78 -44.74 542.34 -40.61 545.67 C-39 547 -39 547 -36.56 549.5 C-33.76 552.23 -30.78 554.43 -27.57 556.67 C-27.05 557.11 -26.54 557.55 -26 558 C-26 558.66 -26 559.32 -26 560 C-25.26 560.27 -24.52 560.54 -23.76 560.81 C-21.08 561.97 -19.13 563.24 -16.81 565 C11.54 585.19 44.26 596.68 79 596.44 C79.9 596.44 80.79 596.43 81.72 596.43 C96.14 596.37 109.92 595.29 124 592 C125.51 591.67 127.03 591.35 128.54 591.02 C137.01 589.11 144.98 586.3 153 583 C154.31 582.51 154.31 582.51 155.64 582 C162.1 579.56 168.03 576.46 174 573 C175.53 572.12 175.53 572.12 177.09 571.22 C199.05 558.2 219.83 539.66 232 517 C232.95 515.41 233.91 513.83 234.88 512.25 C241.48 501.6 241.48 501.6 246 490 C246.66 490 247.32 490 248 490 C248.08 489.07 248.16 488.14 248.25 487.19 C248.72 483.77 249.76 480.78 251 477.56 C252.77 472.93 253.5 468.91 254 464 C254.31 463.1 254.61 462.2 254.93 461.27 C256.15 457.54 256.89 453.8 257.56 449.94 C257.75 448.93 257.75 448.93 257.94 447.89 C260.07 435.82 260.21 423.6 260.24 411.38 C260.25 408.84 260.28 406.31 260.31 403.78 C260.32 402.16 260.32 400.55 260.33 398.93 C260.34 398.18 260.35 397.42 260.37 396.65 C260.38 392.62 260.38 392.62 258.65 389.09 C256.25 387.5 253.74 386.33 251.12 385.12 C246.58 382.89 243.14 381.07 240 377 C239.48 376.33 238.95 375.65 238.41 374.96 C232.64 366.64 232.11 357.54 233.56 347.69 C234.9 342.31 237.54 338.27 241 334 C241.99 332.77 241.99 332.77 243.01 331.51 C247.55 326.41 251.13 323.88 257.96 323.14 C258.97 323.09 259.97 323.05 261 323 C262.77 322.92 262.77 322.92 264.57 322.83 C272.98 322.64 280.03 322.69 286.58 328.63 C287.07 329.1 287.56 329.58 288.06 330.06 C288.84 330.8 288.84 330.8 289.63 331.55 C297.18 338.91 300.99 345.38 302 356 C302.08 356.7 302.16 357.4 302.25 358.12 C302.71 365.25 300.23 371.34 295.72 376.72 C292.21 380.31 288.85 383.69 284.44 386.12 C281.64 387.84 281.64 387.84 281.37 391.35 C280.93 395.87 280.82 400.39 280.71 404.93 C280.18 426.25 278.33 447.31 273 468 C272.01 468 271.02 468 270 468 C270.66 468.33 271.32 468.66 272 469 C270.12 483.69 264.62 496.88 258 510 C257.59 510.86 257.18 511.71 256.75 512.6 C254.53 517.19 252.29 521.07 249 525 C248.39 526.08 247.79 527.15 247.16 528.26 C243.76 534.3 239.32 539.61 235 545 C234.57 545.54 234.14 546.08 233.69 546.64 C222.61 560.35 210.72 572.25 196 582 C195.17 582.57 194.33 583.14 193.47 583.73 C191.34 585.19 189.18 586.61 187 588 C186.27 588.47 185.54 588.93 184.79 589.41 C174.18 595.99 163.14 601.82 151.06 605.11 C147.86 605.99 147.86 605.99 144.31 607.45 C139.34 609.34 134.25 610.46 129.06 611.56 C128.05 611.78 127.05 612 126.01 612.22 C117.37 614.03 108.78 615.17 100 616 C99.12 616.11 98.24 616.22 97.33 616.34 C69.56 619.78 39.84 614.26 14 604 C12.55 603.45 12.55 603.45 11.08 602.89 C-5.63 596.3 -21.2 587.1 -35.14 575.82 C-37.58 573.85 -39.89 572.06 -42.6 570.48 C-45.53 568.67 -47.63 566.48 -50 564 C-51.19 562.87 -51.19 562.87 -52.39 561.71 C-57.55 556.73 -61.91 551.65 -66.01 545.77 C-68.03 542.97 -70.19 540.37 -72.44 537.75 C-82.99 524.96 -90.07 509.83 -95.97 494.44 C-97.16 491.62 -98.57 488.96 -100 486.25 C-110.2 466.03 -111.3 441.6 -110.88 419.34 C-110.86 417.97 -110.84 416.6 -110.82 415.23 C-110.78 412.56 -110.71 409.9 -110.61 407.24 C-110.44 397.31 -111.56 386.89 -118.5 379.25 C-126.71 371.86 -134.75 366.35 -144.71 361.65 C-148.68 359.66 -152.15 357.29 -155.72 354.67 C-157.87 353.09 -160.07 351.63 -162.31 350.19 C-174.46 342.13 -185.35 332.74 -195.58 322.4 C-198.87 319.09 -202.25 315.94 -205.81 312.91 C-208.77 310.33 -211.63 307.67 -214.5 305 C-218.06 301.7 -221.63 298.42 -225.31 295.25 C-233.67 287.96 -240.43 279.89 -247 271 C-247.66 270.16 -248.32 269.31 -249 268.45 C-251.79 264.7 -253.44 262.26 -252.94 257.5 C-252 254 -252 254 -251 253 C-245.52 252.36 -240.52 252.38 -235.78 255.54 C-229.81 260.43 -224.82 265.98 -220.33 272.23 C-218.45 274.73 -216.24 276.82 -214 279 C-213.24 279.95 -212.47 280.9 -211.69 281.88 C-209.09 285.08 -206.04 287.61 -202.91 290.28 C-200.31 292.62 -198.23 295.32 -196 298 C-194.01 299.83 -191.97 301.59 -189.91 303.34 C-187.49 305.45 -185.27 307.73 -183 310 C-178.72 313.88 -174.23 317.37 -169.5 320.7 C-169.01 321.13 -168.51 321.56 -168 322 C-168 322.66 -168 323.32 -168 324 C-167.42 324.27 -166.84 324.55 -166.24 324.83 C-164.04 325.98 -162.2 327.25 -160.23 328.77 C-159.53 329.3 -158.84 329.83 -158.12 330.38 C-157.42 330.91 -156.72 331.45 -156 332 C-154.73 332.95 -153.45 333.91 -152.18 334.86 C-145.86 339.58 -139.56 344.31 -133.31 349.12 C-132.28 349.92 -131.24 350.72 -130.17 351.54 C-127.94 353.26 -125.73 355 -123.52 356.74 C-122.94 357.19 -122.36 357.64 -121.76 358.11 C-120.16 359.36 -118.57 360.61 -116.97 361.87 C-111.97 365.46 -107.78 367.71 -101.6 367.47 C-95.96 366.45 -91.02 363.66 -86 361 C-84.9 360.42 -83.79 359.84 -82.65 359.24 C-67.02 350.66 -53.21 339.92 -40 328 C-39.07 327.17 -38.15 326.35 -37.2 325.5 C-35.56 324.03 -33.94 322.57 -32.31 321.09 C-30.76 319.69 -29.2 318.29 -27.62 316.91 C-22.1 312.02 -16.87 306.9 -11.68 301.66 C-8.28 298.24 -4.81 294.98 -1.14 291.85 C8.2 283.79 16.82 275.24 25 266 C25.59 265.35 26.18 264.7 26.78 264.03 C34.97 254.88 43.17 245.33 49.74 234.94 C51.08 232.87 52.55 230.95 54.06 229 C56.65 225.6 58.72 222.09 60.73 218.32 C62.01 215.97 63.4 213.71 64.81 211.44 C77.23 190.85 85.6 168.4 91.31 145.12 C91.69 143.59 91.69 143.59 92.08 142.03 C96.78 122.21 98.01 96.81 89 78 C88.23 76.02 87.46 74.04 86.69 72.06 C82.83 62.86 77.15 54.81 71 47 C70.59 46.43 70.18 45.86 69.75 45.27 C57.55 29.4 32.75 20.86 13.49 18.32 C10.95 18.02 8.43 17.8 5.87 17.62 C3 17 3 17 1.11 15.37 C-0.37 12.2 -0.29 9.73 -0.19 6.25 C-0.15 4.49 -0.15 4.49 -0.11 2.7 C-0.07 1.81 -0.04 0.92 0 0 Z " fill="#474849" transform="translate(360,44)"/>
<path d="M0 0 C2.5 2.2 4.85 4.47 7.17 6.86 C7.84 7.53 8.52 8.19 9.21 8.88 C25 25.39 32.79 46.02 32.45 68.64 C31.98 81.22 27.2 91.97 21.17 102.86 C20.32 104.44 20.32 104.44 19.45 106.05 C10.32 122.36 -1.49 132.01 -17.83 140.86 C-18.94 141.5 -20.06 142.14 -21.2 142.8 C-27 144.5 -32.83 144.09 -38.83 143.86 C-39.84 140.81 -39.82 139.62 -39.42 136.53 C-38.56 128.93 -38.45 121.31 -38.22 113.68 C-38.12 110.4 -37.98 107.13 -37.83 103.86 C-37.78 102.64 -37.78 102.64 -37.74 101.39 C-37.49 97.93 -37.09 96.16 -34.75 93.54 C-33.46 92.65 -33.46 92.65 -32.14 91.74 C-31.24 91.07 -30.33 90.41 -29.4 89.72 C-28.55 89.11 -27.7 88.5 -26.83 87.86 C-21.36 83.49 -18.68 78.62 -16.83 71.86 C-16.54 68.88 -16.49 66.76 -16.83 63.86 C-16.9 63.01 -16.97 62.15 -17.04 61.27 C-18.44 50.1 -25.07 42.75 -33.44 35.65 C-40.3 30.52 -48.64 31.48 -56.83 31.86 C-57.83 31.91 -58.83 31.95 -59.86 32 C-66.66 32.74 -70.31 35.23 -74.82 40.32 C-75.48 41.16 -76.14 42 -76.83 42.86 C-77.44 43.62 -78.05 44.37 -78.68 45.15 C-84.37 53.23 -84.86 63.16 -83.27 72.74 C-82.1 77.05 -79.7 80.45 -77.07 84.02 C-75.83 85.86 -75.83 85.86 -75.83 87.86 C-73.37 89.1 -70.89 90.32 -68.41 91.52 C-67.15 92.13 -65.9 92.75 -64.64 93.36 C-64 93.67 -63.36 93.98 -62.7 94.3 C-57.94 96.64 -57.94 96.64 -56.83 98.86 C-56.73 101.53 -56.69 104.17 -56.7 106.84 C-56.69 107.63 -56.69 108.43 -56.69 109.25 C-56.69 110.94 -56.69 112.64 -56.7 114.33 C-56.7 116.89 -56.7 119.45 -56.69 122.02 C-56.69 123.67 -56.69 125.31 -56.7 126.96 C-56.69 127.72 -56.69 128.47 -56.69 129.25 C-56.71 134.52 -57.18 139.63 -57.83 144.86 C-80.02 142.43 -98.38 131.62 -112.83 114.86 C-123.99 100.2 -129 82.76 -129.02 64.55 C-129.03 63.66 -129.04 62.78 -129.05 61.87 C-129.1 42.29 -120.55 24.41 -107.83 9.86 C-107.03 8.94 -107.03 8.94 -106.22 8 C-79.09 -21.21 -31.59 -23.86 0 0 Z " fill="#89D6C5" transform="translate(677.828125,336.13671875)"/>
<path d="M0 0 C0 1.32 0 2.64 0 4 C0.5 5.48 0.5 5.48 1 7 C1.07 8.56 1.09 10.13 1.06 11.69 C1.05 12.5 1.04 13.3 1.04 14.14 C1.02 14.75 1.01 15.37 1 16 C-0.19 16.23 -1.37 16.46 -2.59 16.7 C-13.31 18.84 -23.67 21.44 -34 25 C-34.91 25.31 -35.82 25.61 -36.76 25.93 C-56.04 32.96 -73.19 47.53 -82.03 66.11 C-86.19 75.44 -88.86 85.03 -91 95 C-91.18 95.76 -91.35 96.51 -91.53 97.29 C-94.19 112.71 -93.12 132.01 -89 147 C-88.75 147.98 -88.49 148.96 -88.23 149.97 C-78.05 189.75 -78.05 189.75 -55 223 C-52.57 224.21 -50.84 224.2 -48.12 224.32 C-47.14 224.36 -46.15 224.4 -45.14 224.44 C-44.1 224.48 -43.07 224.52 -42 224.56 C-41 224.61 -39.99 224.65 -38.96 224.69 C-32.63 224.95 -26.33 225.06 -20 225 C-19.63 224.01 -19.63 224.01 -19.25 223 C-16.27 215.85 -12.48 209.04 -8.88 202.19 C-8.43 201.34 -7.99 200.5 -7.54 199.63 C-7.11 198.82 -6.68 198 -6.24 197.17 C-5.67 196.07 -5.67 196.07 -5.08 194.96 C-4.14 193.25 -3.08 191.62 -2 190 C0.46 189.5 0.46 189.5 3.38 189.44 C4.81 189.37 4.81 189.37 6.27 189.31 C9 190 9 190 11.18 192.63 C12.92 195.86 14.43 199.04 15.81 202.44 C17.89 207.44 20.09 212.36 22.44 217.25 C25.55 223.76 28.19 230.42 30.69 237.19 C32.25 241.46 32.25 241.46 35 245 C38.53 241.86 40.39 238.67 42.44 234.44 C42.99 233.3 43.55 232.17 44.12 231 C44.75 229.67 45.38 228.33 46 227 C46.35 226.26 46.71 225.52 47.07 224.76 C51.73 214.79 55.58 204.49 59.56 194.23 C60.54 191.72 61.52 189.22 62.5 186.71 C62.8 185.95 63.09 185.2 63.39 184.42 C68.69 170.89 68.69 170.89 72.31 168.44 C76.09 167.82 78.34 167.73 82 169 C83.07 170.75 83.07 170.75 83.96 172.98 C84.29 173.8 84.63 174.62 84.98 175.46 C85.31 176.3 85.65 177.14 86 178 C86.66 179.52 87.33 181.04 88.01 182.56 C92.42 192.68 96.59 202.88 100.56 213.19 C101 214.33 101.45 215.47 101.9 216.64 C102.31 217.7 102.71 218.76 103.13 219.86 C103.49 220.8 103.85 221.75 104.22 222.72 C105 225 105 225 105 227 C105.79 227.03 106.58 227.07 107.4 227.1 C114.86 227.41 122.32 227.74 129.77 228.07 C133.61 228.24 137.44 228.41 141.28 228.57 C144.98 228.72 148.68 228.88 152.39 229.05 C153.8 229.12 155.21 229.18 156.62 229.23 C158.6 229.31 160.58 229.4 162.56 229.5 C164.25 229.57 164.25 229.57 165.97 229.65 C169.03 230 171.29 230.55 174 232 C174.98 234.93 175.08 236.96 175 240 C173.33 240 171.67 240 170 240 C170 240.66 170 241.32 170 242 C170.66 242.33 171.32 242.66 172 243 C170.08 244.92 166.6 244.17 164.07 244.19 C162.98 244.21 162.98 244.21 161.87 244.22 C159.46 244.24 157.05 244.26 154.64 244.27 C153.82 244.28 152.99 244.28 152.15 244.29 C147.8 244.32 143.45 244.34 139.1 244.35 C134.6 244.37 130.11 244.41 125.61 244.46 C122.16 244.5 118.71 244.51 115.25 244.51 C113.6 244.52 111.94 244.54 110.28 244.56 C107.96 244.59 105.64 244.59 103.32 244.58 C102.64 244.6 101.95 244.62 101.25 244.63 C97.58 244.59 96.25 244.25 93.62 241.62 C92.06 239.1 90.86 236.73 89.78 233.98 C89.22 232.57 89.22 232.57 88.64 231.13 C88.27 230.16 87.89 229.19 87.5 228.19 C84.37 220.19 84.37 220.19 80.72 212.43 C79 209 79 209 79 207 C78.34 207 77.68 207 77 207 C76.67 206.34 76.34 205.68 76 205 C74.94 207.42 73.87 209.83 72.81 212.25 C72.52 212.91 72.23 213.58 71.93 214.26 C66.74 226.08 61.91 238.06 57 250 C54.94 255.02 52.87 260.03 50.8 265.05 C50.04 266.91 49.28 268.77 48.52 270.63 C48.08 271.7 47.64 272.77 47.19 273.88 C46.81 274.8 46.43 275.73 46.04 276.68 C45 279 45 279 43 282 C40.07 282.36 40.07 282.36 36.56 282.31 C34.83 282.31 34.83 282.31 33.07 282.3 C30 282 30 282 27 280 C26.1 278.2 26.1 278.2 25.34 275.98 C25.05 275.13 24.75 274.29 24.45 273.42 C24.14 272.5 23.82 271.58 23.5 270.62 C21.18 263.96 18.78 257.37 16.1 250.84 C6.26 226.83 6.26 226.83 6 215 C4.68 215 3.36 215 2 215 C1.65 216.12 1.3 217.25 0.93 218.4 C-1.88 227.03 -4.57 234.32 -11 241 C-14 240 -14 240 -15 239 C-15 239.99 -15 240.98 -15 242 C-21.15 243.08 -27.14 243.15 -33.38 243.12 C-35.09 243.12 -35.09 243.12 -36.84 243.12 C-47.94 243.06 -59.03 242.82 -70.12 242.56 C-70.99 242.54 -71.85 242.52 -72.73 242.5 C-81.72 242.29 -90.7 242.02 -99.68 241.53 C-100.41 241.49 -101.13 241.45 -101.88 241.41 C-106.88 241.12 -106.88 241.12 -108 240 C-108 236.04 -108 232.08 -108 228 C-97.77 228 -87.54 228 -77 228 C-81.24 217.8 -85.52 207.67 -90.26 197.69 C-90.84 196.46 -91.42 195.23 -92 194 C-92.38 193.2 -92.77 192.39 -93.16 191.57 C-96.42 184.6 -99.08 177.54 -101.5 170.25 C-101.89 169.08 -102.28 167.92 -102.68 166.72 C-113.37 133.74 -118.21 95.56 -102.4 63.35 C-92.69 44.7 -77.32 25.66 -59 15 C-58.36 14.62 -57.73 14.24 -57.07 13.84 C-51.49 10.59 -45.89 8.34 -39.75 6.38 C-38.83 6.08 -37.9 5.78 -36.95 5.47 C-24.29 1.44 -13.24 -0.46 0 0 Z " fill="#424042" transform="translate(155,44)"/>
<path d="M0 0 C1.29 -0 1.29 -0 2.61 -0.01 C4.44 -0.02 6.27 -0.02 8.11 -0.02 C10.84 -0.02 13.57 -0.04 16.31 -0.06 C58.88 -0.2 58.88 -0.2 74.41 12.17 C87.43 25.22 90.84 42.31 90.87 60.11 C90.86 60.85 90.86 61.59 90.85 62.35 C90.84 64.6 90.87 66.85 90.9 69.09 C90.97 83.23 88.8 96.97 79.41 108.17 C76.3 111.21 73.01 113.73 69.41 116.17 C68.49 116.8 67.57 117.43 66.62 118.07 C53.65 126.31 40.59 127.8 25.66 127.48 C24.16 127.46 22.67 127.45 21.17 127.43 C10.57 127.31 -0.02 126.95 -10.59 126.17 C-12.27 122.81 -11.98 119.01 -12.15 115.3 C-12.19 114.41 -12.23 113.51 -12.28 112.59 C-12.69 103.06 -12.74 93.54 -12.73 84 C-12.73 82.14 -12.73 80.28 -12.73 78.42 C-12.73 74.57 -12.73 70.71 -12.72 66.85 C-12.72 61.96 -12.72 57.06 -12.73 52.17 C-12.73 48.34 -12.73 44.52 -12.73 40.69 C-12.73 38.89 -12.73 37.08 -12.73 35.28 C-12.74 23.87 -12.4 12.55 -11.59 1.17 C-7.72 -0.12 -4.04 0.01 0 0 Z " fill="#A8D4E5" transform="translate(969.59375,136.83203125)"/>
<path d="M0 0 C8.42 -0.19 15.46 -0.14 22.01 5.8 C22.75 6.51 22.75 6.51 23.5 7.23 C24.01 7.72 24.53 8.22 25.07 8.72 C32.61 16.07 36.42 22.55 37.43 33.17 C37.52 33.87 37.6 34.57 37.68 35.29 C38.14 42.42 35.66 48.51 31.15 53.89 C27.65 57.48 24.28 60.86 19.87 63.29 C17.08 65.01 17.08 65.01 16.8 68.52 C16.37 73.04 16.26 77.56 16.14 82.1 C15.61 103.42 13.76 124.48 8.43 145.17 C7.44 145.17 6.45 145.17 5.43 145.17 C6.09 145.5 6.75 145.83 7.43 146.17 C5.56 160.86 0.05 174.05 -6.57 187.17 C-6.98 188.03 -7.39 188.88 -7.81 189.77 C-10.03 194.36 -12.28 198.24 -15.57 202.17 C-16.17 203.24 -16.78 204.32 -17.4 205.43 C-20.8 211.47 -25.24 216.78 -29.57 222.17 C-30 222.71 -30.43 223.25 -30.88 223.8 C-41.96 237.51 -53.85 249.41 -68.57 259.17 C-69.4 259.74 -70.23 260.31 -71.09 260.9 C-73.23 262.36 -75.39 263.77 -77.57 265.17 C-78.29 265.63 -79.02 266.1 -79.77 266.58 C-90.38 273.16 -101.42 278.99 -113.5 282.28 C-116.7 283.15 -116.7 283.15 -120.21 284.61 C-125.4 286.59 -130.76 287.66 -136.19 288.79 C-137.71 289.12 -137.71 289.12 -139.25 289.45 C-144.01 290.46 -148.76 291.43 -153.57 292.17 C-153.83 291.12 -154.1 290.06 -154.38 288.98 C-155.85 284.22 -155.85 284.22 -158.57 280.17 C-161.32 279.62 -163.5 279.38 -166.25 279.36 C-166.96 279.33 -167.66 279.31 -168.38 279.28 C-170.11 279.22 -171.84 279.19 -173.57 279.17 C-174.23 280.49 -174.89 281.81 -175.57 283.17 C-198.57 284.2 -198.57 284.2 -206.57 278.17 C-206.57 277.84 -206.57 277.51 -206.57 277.17 C-186.27 276.67 -186.27 276.67 -165.57 276.17 C-166.56 275.51 -167.55 274.85 -168.57 274.17 C-167.8 274.04 -167.04 273.91 -166.25 273.77 C-138.36 269 -138.36 269 -111.57 260.17 C-110.69 259.84 -109.82 259.51 -108.93 259.17 C-102.47 256.73 -96.53 253.63 -90.57 250.17 C-89.55 249.58 -88.52 248.99 -87.47 248.39 C-65.52 235.36 -44.74 216.83 -32.57 194.17 C-31.61 192.58 -30.65 191 -29.69 189.42 C-23.09 178.77 -23.09 178.77 -18.57 167.17 C-17.91 167.17 -17.25 167.17 -16.57 167.17 C-16.48 166.24 -16.4 165.31 -16.32 164.36 C-15.85 160.93 -14.8 157.95 -13.57 154.73 C-11.8 150.1 -11.07 146.08 -10.57 141.17 C-10.26 140.27 -9.96 139.37 -9.64 138.44 C-8.42 134.71 -7.67 130.97 -7 127.11 C-6.88 126.43 -6.75 125.76 -6.62 125.06 C-4.49 112.99 -4.36 100.77 -4.33 88.54 C-4.32 86.01 -4.29 83.48 -4.25 80.95 C-4.25 79.33 -4.24 77.71 -4.24 76.1 C-4.22 74.97 -4.22 74.97 -4.2 73.82 C-4.19 69.79 -4.19 69.79 -5.92 66.26 C-8.31 64.67 -10.83 63.5 -13.44 62.29 C-17.98 60.05 -21.42 58.24 -24.57 54.17 C-25.09 53.49 -25.61 52.82 -26.15 52.12 C-31.93 43.81 -32.46 34.71 -31 24.86 C-29.67 19.48 -27.03 15.43 -23.57 11.17 C-22.9 10.35 -22.24 9.52 -21.56 8.68 C-17.02 3.58 -13.44 1.05 -6.6 0.3 C-4.4 0.21 -2.2 0.1 0 0 Z " fill="#464748" transform="translate(624.56640625,366.83203125)"/>
<path d="M0 0 C9.52 7.09 18.81 18.21 21.28 29.89 C22.89 45.1 21.04 58.71 11.97 71.39 C2.62 82.92 -6.94 88.76 -21.72 90.89 C-37.1 92.25 -49.74 90.23 -62.05 80.24 C-69.52 73.66 -72.67 68.69 -74.72 58.89 C-75.06 57.62 -75.41 56.36 -75.77 55.05 C-76.78 51.01 -77.1 47.05 -77.09 42.89 C-77.09 42.17 -77.09 41.44 -77.09 40.69 C-76.84 29.62 -74.62 18.45 -67.03 10.02 C-49.68 -5.48 -20.98 -13.53 0 0 Z " fill="#AAD8E5" transform="translate(1150.7158203125,174.10693359375)"/>
<path d="M0 0 C10.37 7.51 17.99 15.1 20.23 28.04 C22.14 42.04 22.05 56.39 13.42 68.14 C12.66 69.11 12.66 69.11 11.89 70.09 C11.11 71.12 10.32 72.16 9.52 73.22 C1.97 81.48 -6.49 88.49 -18.06 89.3 C-21.54 89.4 -25.01 89.42 -28.48 89.41 C-29.67 89.42 -30.85 89.44 -32.06 89.46 C-47.07 89.46 -56.29 83.78 -66.8 73.45 C-74.88 64.36 -78.26 53.2 -78.11 41.09 C-76.97 26.5 -71.55 15.78 -61.31 5.24 C-44.27 -8.88 -18.93 -11.61 0 0 Z " fill="#AAD8E5" transform="translate(915.109375,174.90625)"/>
<path d="M0 0 C1.34 -0 1.34 -0 2.7 -0 C3.63 -0 4.57 0 5.53 0.01 C6.46 0 7.4 0 8.37 -0 C9.7 -0 9.7 -0 11.06 0 C11.88 0 12.7 0 13.55 0 C15.46 0.13 15.46 0.13 16.46 1.13 C16.58 2.49 16.62 3.86 16.64 5.22 C16.65 6.09 16.67 6.96 16.68 7.85 C16.69 8.8 16.7 9.74 16.71 10.71 C16.74 12.7 16.78 14.68 16.81 16.67 C16.86 19.81 16.9 22.95 16.94 26.09 C16.98 29.11 17.03 32.13 17.09 35.15 C17.09 36.09 17.1 37.03 17.11 38 C17.13 38.87 17.14 39.75 17.16 40.66 C17.17 41.43 17.18 42.2 17.19 42.99 C17.4 45.55 17.4 45.55 19.46 49.13 C34.31 49.46 49.16 49.79 64.46 50.13 C64.44 46.69 64.42 43.25 64.39 39.7 C64.38 36.38 64.37 33.06 64.35 29.73 C64.34 27.42 64.33 25.11 64.31 22.79 C64.29 19.47 64.28 16.15 64.27 12.83 C64.26 11.79 64.25 10.75 64.24 9.68 C64.24 8.72 64.24 7.76 64.24 6.77 C64.23 5.92 64.23 5.07 64.22 4.2 C64.46 2.13 64.46 2.13 66.46 0.13 C68.8 -0.09 68.8 -0.09 71.69 -0.06 C73.24 -0.05 73.24 -0.05 74.82 -0.04 C76.44 -0.02 76.44 -0.02 78.09 0.01 C79.18 0.02 80.27 0.03 81.39 0.04 C84.08 0.06 86.77 0.09 89.46 0.13 C91.32 3.3 91.71 5.6 91.71 9.25 C91.71 10.28 91.71 11.31 91.71 12.37 C91.7 14.06 91.7 14.06 91.69 15.79 C91.69 16.98 91.69 18.17 91.69 19.39 C91.69 22.65 91.68 25.91 91.67 29.17 C91.66 32.58 91.65 35.99 91.65 39.4 C91.65 45.85 91.63 52.3 91.61 58.76 C91.59 66.1 91.58 73.45 91.57 80.8 C91.54 95.91 91.51 111.02 91.46 126.13 C87.34 126.19 83.22 126.23 79.09 126.26 C77.91 126.27 76.74 126.29 75.53 126.31 C73.85 126.32 73.85 126.32 72.13 126.33 C71.09 126.34 70.06 126.35 68.99 126.36 C66.46 126.13 66.46 126.13 64.46 124.13 C64.19 121.92 64.19 121.92 64.15 119.13 C64.13 118.09 64.11 117.05 64.09 115.98 C64.07 114.85 64.06 113.72 64.05 112.56 C64.03 111.41 64.01 110.26 63.99 109.07 C63.93 105.39 63.89 101.7 63.84 98.01 C63.8 95.51 63.76 93.02 63.72 90.52 C63.62 84.39 63.55 78.26 63.46 72.13 C48.28 72.13 33.1 72.13 17.46 72.13 C17.13 89.95 16.8 107.77 16.46 126.13 C9.2 126.13 1.94 126.13 -5.54 126.13 C-6.78 123.65 -6.66 122 -6.66 119.22 C-6.66 118.19 -6.66 117.15 -6.66 116.08 C-6.66 114.94 -6.65 113.79 -6.65 112.61 C-6.65 111.41 -6.65 110.21 -6.65 108.98 C-6.65 105.68 -6.64 102.39 -6.64 99.09 C-6.63 95.65 -6.63 92.21 -6.63 88.77 C-6.63 82.25 -6.62 75.73 -6.61 69.21 C-6.6 61.78 -6.59 54.36 -6.59 46.94 C-6.58 31.67 -6.56 16.4 -6.54 1.13 C-4.15 -0.06 -2.66 0 0 0 Z " fill="#A8D4E5" transform="translate(529.53515625,136.8671875)"/>
<path d="M0 0 C4.58 3.78 8.78 8.35 9.98 14.3 C10.03 15.4 10.07 16.49 10.12 17.62 C10.18 18.94 10.23 20.26 10.29 21.62 C10.49 30.46 10.53 39.31 10.51 48.16 C10.5 51.51 10.51 54.87 10.52 58.22 C10.51 60.4 10.51 62.57 10.51 64.74 C10.51 65.72 10.52 66.71 10.52 67.72 C10.49 74.63 10.04 81.45 9.38 88.32 C6.59 88.4 3.8 88.46 1 88.51 C0.21 88.53 -0.58 88.56 -1.4 88.58 C-3.48 88.61 -5.55 88.48 -7.62 88.32 C-8.28 87.33 -8.94 86.34 -9.62 85.32 C-10.86 85.61 -12.1 85.9 -13.37 86.2 C-15.12 86.58 -16.87 86.95 -18.62 87.32 C-19.96 87.61 -19.96 87.61 -21.33 87.9 C-31.89 89.92 -45.13 91.77 -54.75 86.06 C-61.42 80.98 -66.94 76.38 -68.38 67.78 C-69.05 60.92 -69.61 53.66 -66.62 47.32 C-59.82 39.6 -51.47 34.44 -41.21 33.47 C-36.33 33.18 -31.45 33.22 -26.56 33.26 C-25.5 33.26 -24.45 33.27 -23.36 33.27 C-20.78 33.28 -18.2 33.3 -15.62 33.32 C-16.12 31.5 -16.12 31.5 -16.62 29.63 C-17.42 26.45 -17.83 23.62 -17.62 20.32 C-32.75 20.03 -47.58 20.75 -62.62 22.32 C-65.2 17.16 -64.61 8.96 -63.62 3.32 C-61.66 0.02 -59.19 -0.58 -55.62 -1.68 C-54.51 -2.13 -53.41 -2.59 -52.27 -3.06 C-36.06 -9.37 -15.03 -9.63 0 0 Z " fill="#AAD8E4" transform="translate(710.62109375,174.6796875)"/>
<path d="M0 0 C1.07 1.75 1.07 1.75 1.96 3.98 C2.46 5.21 2.46 5.21 2.98 6.46 C3.31 7.3 3.65 8.14 4 9 C4.66 10.52 5.33 12.04 6.01 13.56 C10.42 23.68 14.59 33.88 18.56 44.19 C19.22 45.9 19.22 45.9 19.9 47.64 C20.31 48.7 20.71 49.76 21.13 50.86 C21.49 51.8 21.85 52.75 22.22 53.72 C23 56 23 56 23 58 C24.19 58.05 24.19 58.05 25.4 58.1 C32.86 58.41 40.32 58.74 47.77 59.07 C51.61 59.24 55.44 59.41 59.28 59.57 C62.98 59.72 66.68 59.88 70.39 60.05 C71.8 60.12 73.21 60.18 74.62 60.23 C76.6 60.31 78.58 60.4 80.56 60.5 C81.68 60.55 82.81 60.6 83.97 60.65 C87.03 61 89.29 61.55 92 63 C92.98 65.93 93.08 67.96 93 71 C91.33 71 89.67 71 88 71 C88 71.66 88 72.32 88 73 C88.66 73.33 89.32 73.66 90 74 C88.08 75.92 84.6 75.17 82.07 75.19 C80.98 75.21 80.98 75.21 79.87 75.22 C77.46 75.24 75.05 75.26 72.64 75.27 C71.82 75.28 70.99 75.28 70.15 75.29 C65.8 75.32 61.45 75.34 57.1 75.35 C52.6 75.37 48.11 75.41 43.61 75.46 C40.16 75.5 36.71 75.51 33.25 75.51 C31.6 75.52 29.94 75.54 28.28 75.56 C25.96 75.59 23.64 75.59 21.32 75.58 C20.64 75.6 19.95 75.62 19.25 75.63 C15.58 75.59 14.25 75.25 11.62 72.62 C10.06 70.1 8.86 67.73 7.78 64.98 C7.41 64.04 7.03 63.1 6.64 62.13 C6.27 61.16 5.89 60.19 5.5 59.19 C2.37 51.19 2.37 51.19 -1.28 43.43 C-3 40 -3 40 -3 38 C-3.66 38 -4.32 38 -5 38 C-5.33 37.34 -5.66 36.68 -6 36 C-7.06 38.42 -8.13 40.83 -9.19 43.25 C-9.48 43.91 -9.77 44.58 -10.07 45.26 C-15.26 57.08 -20.09 69.06 -25 81 C-27.06 86.02 -29.13 91.03 -31.2 96.05 C-31.96 97.91 -32.72 99.77 -33.48 101.63 C-33.92 102.7 -34.36 103.77 -34.81 104.88 C-35.19 105.8 -35.57 106.73 -35.96 107.68 C-37 110 -37 110 -39 113 C-41.93 113.36 -41.93 113.36 -45.44 113.31 C-46.59 113.31 -47.74 113.3 -48.93 113.3 C-52 113 -52 113 -55 111 C-55.93 109.12 -55.93 109.12 -56.73 106.8 C-57.03 105.93 -57.34 105.07 -57.65 104.17 C-58.13 102.76 -58.13 102.76 -58.62 101.31 C-60.76 95.15 -62.93 89.05 -65.52 83.06 C-70.54 71.38 -74.28 60.83 -72 48 C-71.01 46.99 -70.01 45.99 -69 45 C-68.64 41.8 -68.64 41.8 -68.81 38.31 C-68.85 36.54 -68.85 36.54 -68.89 34.74 C-68.95 33.38 -68.95 33.38 -69 32 C-68.34 32 -67.68 32 -67 32 C-61.4 43.34 -56.36 54.76 -51.92 66.61 C-51.57 67.54 -51.21 68.48 -50.85 69.44 C-50.54 70.27 -50.23 71.11 -49.91 71.96 C-49.07 74.17 -49.07 74.17 -47 76 C-43.47 72.86 -41.61 69.67 -39.56 65.44 C-39.01 64.3 -38.45 63.17 -37.88 62 C-37.25 60.67 -36.62 59.33 -36 58 C-35.65 57.26 -35.29 56.52 -34.93 55.76 C-30.27 45.79 -26.42 35.49 -22.44 25.23 C-21.46 22.72 -20.48 20.22 -19.5 17.71 C-19.06 16.57 -19.06 16.57 -18.61 15.42 C-13.31 1.89 -13.31 1.89 -9.69 -0.56 C-5.91 -1.18 -3.66 -1.27 0 0 Z " fill="#424042" transform="translate(237,213)"/>
<path d="M0 0 C8.42 -0.19 15.46 -0.14 22.01 5.8 C22.5 6.27 22.99 6.74 23.5 7.23 C24.27 7.97 24.27 7.97 25.07 8.72 C32.61 16.07 36.42 22.55 37.43 33.17 C37.52 33.87 37.6 34.57 37.68 35.29 C38.14 42.42 35.66 48.51 31.15 53.89 C27.65 57.48 24.28 60.86 19.87 63.29 C17.08 65.01 17.08 65.01 16.81 68.49 C16.25 74.26 16.16 80.06 16 85.86 C15.71 94.67 15.29 103.45 14.5 112.23 C14.38 113.55 14.38 113.55 14.27 114.9 C13.68 120.92 13.68 120.92 11.43 123.17 C8.9 123.21 8.9 123.21 5.93 122.92 C4.95 122.83 3.97 122.74 2.96 122.65 C0.43 122.17 0.43 122.17 -1.57 120.17 C-2.56 121.16 -3.55 122.15 -4.57 123.17 C-5.48 119.43 -5.54 116.37 -5.14 112.55 C-4.44 104.55 -4.35 96.57 -4.33 88.54 C-4.32 86.01 -4.29 83.48 -4.25 80.95 C-4.25 79.33 -4.24 77.71 -4.24 76.1 C-4.23 75.34 -4.21 74.59 -4.2 73.82 C-4.19 69.79 -4.19 69.79 -5.92 66.26 C-8.31 64.67 -10.83 63.5 -13.44 62.29 C-17.98 60.05 -21.42 58.24 -24.57 54.17 C-25.35 53.16 -25.35 53.16 -26.15 52.12 C-31.93 43.81 -32.46 34.71 -31 24.86 C-29.67 19.48 -27.03 15.43 -23.57 11.17 C-22.9 10.35 -22.24 9.52 -21.56 8.68 C-17.02 3.58 -13.44 1.05 -6.6 0.3 C-4.4 0.21 -2.2 0.1 0 0 Z " fill="#213937" transform="translate(624.56640625,366.83203125)"/>
<path d="M0 0 C0.83 1.66 1.66 3.32 2.49 4.98 C3.21 6.43 3.94 7.88 4.67 9.33 C6.39 12.74 8.08 16.16 9.7 19.62 C16.72 34.37 26.59 50.39 39.42 60.71 C41 62 41 62 43.44 64.5 C46.24 67.23 49.22 69.43 52.43 71.67 C52.95 72.11 53.46 72.55 54 73 C54 73.66 54 74.32 54 75 C54.74 75.27 55.48 75.54 56.24 75.81 C58.92 76.97 60.87 78.24 63.19 80 C91.4 100.09 123.74 111.3 158.25 111.56 C160.74 111.59 163.23 111.61 165.72 111.65 C167.25 111.68 168.78 111.69 170.32 111.7 C174.03 111.75 176.84 111.94 180 114 C177.87 116.13 173.11 115.26 170.15 115.32 C169.27 115.34 168.38 115.36 167.47 115.38 C164.62 115.44 161.78 115.5 158.94 115.56 C157.01 115.61 155.09 115.65 153.17 115.69 C148.45 115.8 143.72 115.9 139 116 C145.89 119.4 145.89 119.4 153.4 120.5 C154.31 120.5 155.22 120.5 156.16 120.5 C157.08 120.48 157.99 120.46 158.94 120.44 C159.88 120.44 160.83 120.45 161.8 120.46 C165.42 120.46 165.42 120.46 169 120 C169.99 118.51 169.99 118.51 171 117 C176.38 116.12 183.37 115.3 188.1 118.36 C191.01 122.2 191.17 125.22 191 130 C157.7 133.69 125.44 131.48 94 119 C93.04 118.63 92.07 118.27 91.08 117.89 C74.37 111.3 58.8 102.1 44.86 90.82 C42.42 88.85 40.11 87.06 37.4 85.48 C34.47 83.67 32.37 81.48 30 79 C29.21 78.24 28.42 77.49 27.61 76.71 C22.45 71.73 18.09 66.65 13.99 60.77 C11.97 57.97 9.81 55.37 7.56 52.75 C-3.55 39.29 -16.15 18.57 -18 1 C-16 4 -16 4 -15 6 C-11.1 4.54 -7.45 2.74 -3.77 0.8 C-2 0 -2 0 0 0 Z " fill="#413F41" transform="translate(280,529)"/>
<path d="M0 0 C0.75 0.54 1.5 1.07 2.27 1.62 C3.24 2.27 3.24 2.27 4.23 2.94 C6.89 5.23 8.1 7.15 8.51 10.7 C8.78 16.02 8.58 21.31 8.27 26.62 C3.29 26.13 -0.2 25.09 -4.54 22.62 C-11.42 19.05 -16.83 18.11 -24.48 19.12 C-30.63 21.96 -34.21 27.47 -36.96 33.54 C-40.01 41.89 -38.24 48.63 -34.73 56.62 C-32.44 60.19 -30.65 62.1 -26.73 63.62 C-17.37 64.01 -8.07 62.01 -0.12 56.97 C3.04 55.19 4.84 55.75 8.27 56.62 C9.17 60.64 9.42 64.59 9.52 68.69 C9.55 69.69 9.58 70.69 9.6 71.72 C8.96 77.39 5.53 80.8 1.29 84.27 C-4.33 88.04 -11.07 89.2 -17.73 89.62 C-18.39 89.68 -19.05 89.73 -19.73 89.79 C-32.18 90.31 -42.49 86.96 -51.73 78.62 C-61.94 68.95 -66.74 56.16 -67.16 42.25 C-66.82 27.99 -61.2 15.22 -51.54 4.75 C-36.59 -9.33 -16.95 -11.12 0 0 Z " fill="#AAD8E4" transform="translate(1248.7265625,175.375)"/>
<path d="M0 0 C1.02 0.03 2.03 0.06 3.08 0.09 C11.8 0.59 19.09 2.55 25.25 9 C36.67 23.05 38.33 38.53 37 56 C35.26 66.36 28.39 73.94 20.12 80.06 C12.32 84.9 2.43 84.13 -6.5 84.31 C-7.29 84.34 -8.08 84.37 -8.89 84.4 C-14.49 84.46 -14.49 84.46 -16.72 82.44 C-18.45 79.15 -18.42 76.16 -18.39 72.53 C-18.39 71.78 -18.4 71.03 -18.4 70.26 C-18.42 67.8 -18.41 65.33 -18.4 62.87 C-18.4 61.16 -18.4 59.44 -18.41 57.73 C-18.41 54.14 -18.41 50.55 -18.39 46.97 C-18.37 42.36 -18.38 37.76 -18.4 33.16 C-18.41 29.62 -18.41 26.08 -18.4 22.55 C-18.4 20.85 -18.4 19.15 -18.41 17.46 C-18.42 15.08 -18.4 12.72 -18.39 10.35 C-18.39 9.64 -18.4 8.94 -18.41 8.22 C-18.37 5.37 -18.3 3.44 -16.67 1.06 C-12.33 -1.69 -5.03 -0.2 0 0 Z " fill="#FAFDFF" transform="translate(999,158)"/>
<path d="M0 0 C0.83 0.01 1.65 0.02 2.51 0.03 C3.4 0.04 4.3 0.04 5.22 0.05 C6.63 0.08 6.63 0.08 8.06 0.1 C9.01 0.11 9.95 0.12 10.93 0.13 C13.26 0.15 15.6 0.19 17.94 0.23 C19.87 3.49 20.18 5.91 20.18 9.68 C20.18 10.79 20.18 11.9 20.19 13.04 C20.18 14.25 20.17 15.46 20.16 16.71 C20.16 17.98 20.16 19.26 20.16 20.58 C20.17 24.08 20.15 27.58 20.14 31.09 C20.13 34.75 20.13 38.41 20.12 42.07 C20.12 49 20.1 55.93 20.08 62.86 C20.06 70.75 20.05 78.64 20.04 86.53 C20.02 102.76 19.98 119 19.94 135.23 C19.28 135.23 18.62 135.23 17.94 135.23 C17.94 135.89 17.94 136.55 17.94 137.23 C14.65 137.28 11.35 137.32 8.06 137.35 C7.12 137.37 6.19 137.39 5.22 137.4 C3.88 137.41 3.88 137.41 2.51 137.42 C1.68 137.43 0.85 137.44 0 137.45 C-2.06 137.23 -2.06 137.23 -4.06 135.23 C-4.31 132.91 -4.31 132.91 -4.32 129.95 C-4.32 128.83 -4.33 127.71 -4.33 126.56 C-4.33 125.33 -4.33 124.09 -4.32 122.82 C-4.33 121.53 -4.33 120.23 -4.33 118.9 C-4.34 115.34 -4.34 111.79 -4.33 108.23 C-4.33 104.52 -4.33 100.8 -4.33 97.09 C-4.34 90.84 -4.33 84.6 -4.32 78.36 C-4.31 71.14 -4.32 63.92 -4.33 56.7 C-4.34 50.5 -4.34 44.31 -4.33 38.12 C-4.33 34.41 -4.33 30.71 -4.34 27.01 C-4.34 22.88 -4.33 18.76 -4.32 14.63 C-4.33 13.4 -4.33 12.16 -4.33 10.89 C-4.33 9.78 -4.32 8.66 -4.32 7.5 C-4.32 6.04 -4.32 6.04 -4.31 4.54 C-3.98 1.47 -3.14 0.35 0 0 Z " fill="#A8D4E5" transform="translate(799.06298828125,125.77294921875)"/>
<path d="M0 0 C0.85 0 1.7 0.01 2.57 0.01 C3.89 0.02 3.89 0.02 5.24 0.04 C6.58 0.04 6.58 0.04 7.94 0.05 C10.15 0.06 12.35 0.08 14.55 0.1 C14.55 0.76 14.55 1.42 14.55 2.1 C15.21 2.43 15.87 2.76 16.55 3.1 C16.22 47.32 15.89 91.54 15.55 137.1 C8.29 137.1 1.03 137.1 -6.45 137.1 C-7.74 134.51 -7.57 132.66 -7.57 129.77 C-7.57 128.64 -7.57 127.51 -7.57 126.35 C-7.57 125.1 -7.57 123.85 -7.56 122.57 C-7.56 121.26 -7.56 119.96 -7.56 118.61 C-7.56 115.02 -7.56 111.43 -7.55 107.84 C-7.54 104.09 -7.54 100.34 -7.54 96.59 C-7.54 89.48 -7.53 82.38 -7.52 75.27 C-7.51 67.19 -7.5 59.1 -7.5 51.01 C-7.49 34.37 -7.47 17.74 -7.45 1.1 C-4.63 0.16 -2.92 -0.02 0 0 Z " fill="#A8D4E5" transform="translate(753.44921875,125.90234375)"/>
<path d="M0 0 C8.79 0.15 13.39 4.9 19.24 10.94 C21.71 13.68 23.89 16.54 26.04 19.54 C27.92 22.04 30.14 24.13 32.38 26.31 C33.14 27.26 33.9 28.21 34.69 29.19 C37.29 32.39 40.33 34.93 43.47 37.59 C46.06 39.93 48.14 42.63 50.38 45.31 C52.37 47.14 54.41 48.9 56.46 50.66 C58.89 52.76 61.11 55.04 63.38 57.31 C67.66 61.19 72.15 64.68 76.87 68.02 C77.37 68.44 77.86 68.87 78.38 69.31 C78.38 69.97 78.38 70.63 78.38 71.31 C78.96 71.59 79.54 71.86 80.14 72.14 C82.34 73.29 84.18 74.57 86.14 76.08 C86.84 76.61 87.54 77.14 88.26 77.69 C88.96 78.23 89.65 78.76 90.38 79.31 C91.65 80.27 92.92 81.22 94.2 82.17 C102.64 88.49 111.06 94.83 119.38 101.31 C119.91 101.72 120.44 102.13 120.98 102.55 C122.54 103.75 124.08 104.97 125.62 106.19 C126.96 107.24 126.96 107.24 128.33 108.3 C130.44 110.37 131.15 111.4 131.38 114.31 C131.04 114.64 130.72 114.97 130.38 115.31 C130.3 117.17 130.29 119.02 130.31 120.88 C130.32 121.89 130.33 122.9 130.34 123.94 C130.35 124.72 130.36 125.51 130.38 126.31 C126.03 124.87 122.92 122.5 119.44 119.62 C113.81 115.12 108.19 112.04 101.66 108.96 C97.7 106.97 94.22 104.6 90.66 101.98 C88.5 100.41 86.31 98.95 84.06 97.5 C71.92 89.45 61.02 80.05 50.79 69.72 C47.5 66.4 44.13 63.25 40.57 60.22 C37.61 57.65 34.75 54.98 31.88 52.31 C28.32 49.01 24.75 45.73 21.06 42.56 C12.71 35.27 5.94 27.2 -0.62 18.31 C-1.29 17.47 -1.95 16.63 -2.63 15.76 C-5.42 12.02 -7.07 9.58 -6.56 4.81 C-5.26 -0.04 -4.76 0.14 0 0 Z " fill="#474849" transform="translate(113.625,296.6875)"/>
<path d="M0 0 C14.2 -0.35 14.2 -0.35 21 2 C22.48 2.29 23.96 2.56 25.44 2.81 C43.31 6.4 63.57 14.11 76 28 C76 28.66 76 29.32 76 30 C76.88 30.42 76.88 30.42 77.78 30.84 C93.06 38.83 103.03 59.21 108.26 74.82 C111.57 85.52 113.24 96.82 113 108 C112.34 108 111.68 108 111 108 C111.02 108.64 111.05 109.28 111.07 109.94 C111.33 122.47 111.33 122.47 107.38 126.76 C102.63 131 102.63 131 100 131 C98.68 128.36 98.9 126.32 98.94 123.38 C98.95 122.37 98.96 121.37 98.96 120.34 C98.98 119.57 98.99 118.79 99 118 C98.34 118 97.68 118 97 118 C95.67 115.34 95.64 113 95.39 110.03 C95.27 108.82 95.16 107.61 95.04 106.36 C94.81 103.82 94.58 101.28 94.37 98.73 C93.64 91.14 92.22 84.9 89 78 C88.59 76.94 88.18 75.88 87.76 74.79 C83.7 64.5 77.82 55.66 71 47 C70.59 46.43 70.18 45.86 69.75 45.27 C57.55 29.4 32.75 20.86 13.49 18.32 C10.95 18.02 8.43 17.8 5.87 17.62 C3 17 3 17 1.11 15.37 C-0.37 12.2 -0.29 9.73 -0.19 6.25 C-0.16 5.08 -0.13 3.91 -0.11 2.7 C-0.07 1.81 -0.04 0.92 0 0 Z " fill="#413F41" transform="translate(360,44)"/>
<path d="M0 0 C0.78 0.27 1.57 0.54 2.38 0.81 C6.89 2.29 11.44 3.65 16 5 C16 5.66 16 6.32 16 7 C17.09 7.25 18.19 7.5 19.31 7.75 C23 9 23 9 24.94 10.69 C27.32 15.88 25.8 21.51 24.53 26.86 C22.68 35.35 22.49 43.65 22.56 52.31 C22.57 53.46 22.57 53.46 22.57 54.63 C22.62 66.21 23.6 76.9 27 88 C27.6 90.27 28.18 92.54 28.75 94.81 C28.99 95.71 29.23 96.6 29.48 97.52 C30 100 30 100 29.96 102.52 C30.01 105.41 30.73 107.29 31.88 109.94 C33.43 113.58 34.78 117.23 36 121 C34.09 122.01 32.17 123.01 30.25 124 C29.18 124.56 28.12 125.11 27.02 125.69 C24 127 24 127 20 127 C5.48 112.48 5.08 82.35 5 63 C5.04 60.45 5.08 57.9 5.12 55.35 C5.14 53.98 5.16 52.61 5.18 51.24 C5.22 48.57 5.29 45.91 5.39 43.24 C5.55 33.61 3.56 26.79 0 18 C-0.9 14.91 -1.13 12.22 -1.12 9 C-1.13 8.15 -1.13 7.31 -1.13 6.44 C-1.01 4.15 -0.64 2.19 0 0 Z " fill="#403E40" transform="translate(244,408)"/>
<path d="M0 0 C5.35 3.78 7.08 8.63 8.56 14.81 C8.88 19.82 8.73 24.8 8.56 29.81 C8.52 31.18 8.52 31.18 8.47 32.57 C8.03 38.95 5.8 42.79 1 47.12 C-3.72 50.39 -8.23 50.06 -13.75 50.12 C-15.01 50.17 -15.01 50.17 -16.3 50.21 C-22.88 50.28 -26.24 48.61 -31.23 44.24 C-35.78 39.17 -38.22 33.61 -38.53 26.75 C-37.9 18.96 -34.31 9.14 -28.44 3.81 C-18.9 -1.58 -10.59 -3.66 0 0 Z " fill="#FAFDFF" transform="translate(900.4375,192.1875)"/>
<path d="M0 0 C4.67 3.65 8.38 8.11 9.56 14 C9.83 17.75 9.84 21.49 9.88 25.25 C9.9 26.26 9.93 27.27 9.96 28.32 C10.02 34.75 9.39 39.69 5.56 45 C1.64 48.74 -3.05 50.69 -8.44 51 C-9.34 51.09 -10.23 51.17 -11.16 51.26 C-17.83 51.65 -22.19 50.95 -27.53 46.84 C-33.31 41.26 -35.9 34.69 -36.81 26.75 C-36.01 18.75 -32.72 10.16 -27.44 4 C-19.72 -1.98 -9.18 -2.67 0 0 Z " fill="#FAFDFF" transform="translate(1135.4375,192)"/>
<path d="M0 0 C3.47 2.84 3.83 6.47 4.33 10.76 C4.46 17.16 4.17 21.75 0.54 27.12 C-5.21 32.53 -14.93 31.58 -22.3 31.62 C-26.15 31.32 -28.94 29.81 -31.75 27.18 C-35.59 22.5 -36.62 16.78 -36.39 10.85 C-35.59 5.73 -33.3 1.91 -29.73 -1.77 C-19.84 -7.74 -9.83 -4.65 0 0 Z " fill="#89D6C6" transform="translate(357.0390625,40.390625)"/>
<path d="M0 0 C3.6 3.04 5.73 6.31 6.48 10.98 C6.62 16.61 6.41 21.34 3 26 C-3.13 32.13 -8.94 32.38 -17.22 32.46 C-21.69 32.38 -24.95 32.26 -28.5 29.25 C-32.46 24.89 -33.38 20.52 -34.12 14.75 C-34.29 13.49 -34.46 12.22 -34.63 10.92 C-34.75 9.96 -34.88 8.99 -35 8 C-34.34 8 -33.68 8 -33 8 C-33.33 7.01 -33.66 6.02 -34 5 C-25.22 -5.53 -11.94 -5.87 0 0 Z " fill="#89D6C5" transform="translate(189,39)"/>
<path d="M0 0 C0.33 4.29 0.66 8.58 1 13 C2.65 13.33 4.3 13.66 6 14 C8.33 17.89 8.61 22.38 9.12 26.81 C9.21 27.51 9.3 28.2 9.39 28.91 C9.6 30.61 9.8 32.3 10 34 C11.09 34.14 12.19 34.28 13.32 34.42 C15.84 35.14 16.75 35.55 18.05 37.87 C18.83 40.33 19.41 42.78 19.94 45.31 C20.14 46.17 20.35 47.02 20.56 47.9 C21.53 52.05 22.02 55.75 22 60 C22.77 62.5 22.77 62.5 23.88 64.94 C25.43 68.58 26.78 72.23 28 76 C26.09 77.01 24.17 78.01 22.25 79 C21.18 79.56 20.12 80.11 19.02 80.69 C16 82 16 82 12 82 C-4.74 65.26 -3.05 30.25 -3.06 8.25 C-3.05 5.83 -3.03 3.42 -3 1 C-1 0 -1 0 0 0 Z " fill="#464748" transform="translate(252,453)"/>
<path d="M0 0 C3.55 3.28 5.9 6.42 6.2 11.3 C6.22 12.64 6.24 13.98 6.25 15.31 C6.28 16.63 6.3 17.94 6.33 19.3 C5.98 23.17 5.35 24.96 3 28 C-4.24 33.54 -11.06 33.8 -20 33 C-23.56 31.31 -23.56 31.31 -26 29 C-26.78 28.3 -27.57 27.6 -28.38 26.88 C-31.65 21.08 -30.41 14.82 -28.69 8.62 C-27.64 5.21 -26.42 2.65 -24 0 C-16.26 -4.02 -7.64 -4.34 0 0 Z " fill="#89D7C6" transform="translate(638,385)"/>
<path d="M0 0 C1.37 -0.03 2.75 -0.05 4.12 -0.06 C5.27 -0.08 5.27 -0.08 6.45 -0.1 C9 0 9 0 11.63 0.49 C15.62 1.09 19.51 1.19 23.54 1.25 C25.19 1.28 26.84 1.31 28.48 1.35 C31.06 1.39 33.64 1.44 36.22 1.48 C38.72 1.52 41.22 1.57 43.73 1.62 C44.5 1.63 45.27 1.64 46.06 1.65 C49.84 1.73 52.79 1.89 56 4 C53.87 6.13 49.11 5.26 46.15 5.32 C45.27 5.34 44.38 5.36 43.47 5.38 C40.62 5.44 37.78 5.5 34.94 5.56 C33.01 5.61 31.09 5.65 29.17 5.69 C24.45 5.8 19.72 5.9 15 6 C21.89 9.4 21.89 9.4 29.4 10.5 C30.31 10.5 31.22 10.5 32.16 10.5 C33.08 10.48 33.99 10.46 34.94 10.44 C35.88 10.44 36.83 10.45 37.8 10.46 C41.42 10.46 41.42 10.46 45 10 C45.66 9.01 46.32 8.02 47 7 C52.38 6.12 59.37 5.3 64.1 8.36 C67.01 12.2 67.17 15.22 67 20 C42.33 22.73 19.38 22.21 -5 17 C-2.85 12.44 0.15 10.16 4.16 7.33 C6.11 5.99 6.11 5.99 8 4 C10.62 3.38 10.62 3.38 13 3 C12.23 2.95 11.46 2.9 10.66 2.85 C9.16 2.74 9.16 2.74 7.62 2.62 C6.13 2.52 6.13 2.52 4.6 2.41 C2 2 2 2 0 0 Z " fill="#2F2F31" transform="translate(404,639)"/>
<path d="M0 0 C1.73 1.73 1.25 3.96 1.31 6.31 C1.35 7.28 1.39 8.24 1.43 9.24 C1 12 1 12 -0.32 14.34 C-4.68 17.04 -9.17 16.46 -14.19 16.31 C-15.21 16.3 -16.23 16.29 -17.29 16.28 C-24.83 16.17 -24.83 16.17 -26 15 C-26.48 10.28 -26.84 5.68 -24.69 1.38 C-17.41 -2.35 -7.85 -1.3 0 0 Z " fill="#FAFDFF" transform="translate(694,225)"/>
<path d="M0 0 C6.35 1.16 6.35 1.16 9 4 C9.93 6.66 10.45 9.22 11 12 C11.66 12 12.32 12 13 12 C12.34 11.01 11.68 10.02 11 9 C11.02 6.74 11.02 6.74 11.38 4.31 C11.54 3.1 11.54 3.1 11.71 1.86 C11.81 1.25 11.9 0.63 12 0 C12.33 0 12.66 0 13 0 C13.33 5.28 13.66 10.56 14 16 C13.34 16 12.68 16 12 16 C12.02 16.64 12.05 17.28 12.07 17.94 C12.33 30.47 12.33 30.47 8.38 34.76 C3.63 39 3.63 39 1 39 C-0.61 35.77 -0.12 32.25 -0.1 28.71 C-0.1 27.89 -0.09 27.07 -0.09 26.23 C-0.09 23.61 -0.08 20.99 -0.06 18.38 C-0.06 16.6 -0.05 14.83 -0.05 13.05 C-0.04 8.7 -0.02 4.35 0 0 Z " fill="#303032" transform="translate(459,136)"/>
<path d="M0 0 C0.33 0.99 0.66 1.98 1 3 C1.99 3 2.98 3 4 3 C0.29 12.44 -5.93 20.58 -14.87 25.62 C-17.25 26.62 -19.46 27.5 -22 28 C-22.66 27.67 -23.32 27.34 -24 27 C-23.34 26.34 -22.68 25.68 -22 25 C-22.99 24.34 -23.98 23.68 -25 23 C-21.28 12.52 -13.36 5.97 -3.86 0.84 C-2 0 -2 0 0 0 Z " fill="#A8D5E5" transform="translate(868,173)"/>
<path d="M0 0 C0.6 0.08 1.21 0.17 1.83 0.25 C3.03 0.41 3.03 0.41 4.25 0.56 C5.04 0.67 5.83 0.77 6.64 0.88 C8.97 1.12 8.97 1.12 11.03 0.47 C14.53 -0.36 17.6 1.04 21 2 C20.01 2.66 19.02 3.32 18 4 C21.63 4.66 25.26 5.32 29 6 C28.67 6.66 28.34 7.32 28 8 C26.95 8.12 26.95 8.12 25.88 8.25 C20.84 9.56 17.24 13.43 14.06 17.44 C12 19 12 19 8.19 18.88 C4.38 18.18 0.69 17.15 -3 16 C-3 15.34 -3 14.68 -3 14 C-4.32 13.34 -5.64 12.68 -7 12 C-6.36 11.82 -5.72 11.64 -5.07 11.45 C-3.83 11.07 -3.83 11.07 -2.56 10.69 C-1.74 10.44 -0.92 10.2 -0.07 9.95 C0.62 9.64 1.3 9.32 2 9 C3.4 5.93 3.4 5.93 1.56 2.81 C1.05 1.88 0.53 0.96 0 0 Z " fill="#464748" transform="translate(388,636)"/>
<path d="M0 0 C0.99 0.33 1.98 0.66 3 1 C2.34 1 1.68 1 1 1 C1 1.66 1 2.32 1 3 C-0.32 3.33 -1.64 3.66 -3 4 C-3 4.66 -3 5.32 -3 6 C-4.07 7.14 -5.16 8.28 -6.3 9.36 C-7.64 10.65 -8.94 11.98 -10.23 13.33 C-11.02 14.15 -11.81 14.97 -12.62 15.81 C-13.76 17 -13.76 17 -14.91 18.21 C-17 20 -17 20 -20 20 C-20.26 20.73 -20.51 21.46 -20.78 22.21 C-22.06 25.13 -23.52 27.12 -25.56 29.56 C-29.55 34.39 -33.25 39.36 -36.92 44.43 C-38.81 46.76 -40.52 48.35 -43 50 C-42.29 42.01 -38.63 37.33 -34 31 C-33.41 30.19 -32.82 29.37 -32.22 28.53 C-27.97 22.94 -23.16 17.93 -18.25 12.94 C-17.6 12.27 -16.95 11.6 -16.28 10.91 C-15.66 10.29 -15.03 9.67 -14.39 9.03 C-13.83 8.47 -13.28 7.91 -12.7 7.33 C-10.79 5.84 -9.35 5.5 -7 5 C-6.32 4.48 -5.64 3.97 -4.94 3.44 C-3 2 -3 2 0 2 C0 1.34 0 0.68 0 0 Z " fill="#474849" transform="translate(97,60)"/>
<path d="M0 0 C1.1 0.01 1.1 0.01 2.22 0.03 C4 0.05 5.78 0.09 7.56 0.12 C7.56 1.45 7.56 2.77 7.56 4.12 C7.89 5.12 8.22 6.11 8.56 7.12 C8.63 8.69 8.65 10.25 8.62 11.81 C8.62 12.62 8.61 13.43 8.6 14.26 C8.59 14.88 8.57 15.49 8.56 16.12 C3.21 16.72 -2.05 17.27 -7.44 17.12 C-7.11 16.14 -6.78 15.14 -6.44 14.12 C-4.37 13.18 -4.37 13.18 -1.88 12.44 C-1.05 12.19 -0.22 11.93 0.63 11.68 C1.27 11.49 1.91 11.31 2.56 11.12 C1.9 10.13 1.24 9.14 0.56 8.12 C-1.99 7.62 -1.99 7.62 -4.88 7.56 C-10.13 7.33 -10.13 7.33 -13.44 5.12 C-13.44 4.47 -13.44 3.8 -13.44 3.12 C-14.1 2.8 -14.76 2.47 -15.44 2.12 C-10.12 0.35 -5.58 -0.13 0 0 Z " fill="#48494A" transform="translate(147.4375,43.875)"/>
<path d="M0 0 C9.61 -0.05 19.23 -0.08 28.84 -0.1 C33.31 -0.11 37.77 -0.13 42.23 -0.15 C46.54 -0.17 50.84 -0.18 55.15 -0.19 C56.79 -0.19 58.44 -0.2 60.08 -0.21 C62.38 -0.23 64.68 -0.23 66.98 -0.23 C68.29 -0.23 69.6 -0.24 70.95 -0.24 C74 0 74 0 76 2 C74.34 3.66 72.33 3.12 70.12 3.12 C69.42 3.12 68.72 3.12 68 3.11 C66.9 3.11 66.9 3.11 65.78 3.11 C63.36 3.11 60.93 3.11 58.5 3.1 C56.82 3.1 55.14 3.09 53.46 3.09 C49.03 3.09 44.59 3.08 40.16 3.07 C35.65 3.06 31.13 3.05 26.61 3.05 C17.74 3.04 8.87 3.02 0 3 C0 2.01 0 1.02 0 0 Z " fill="#121315" transform="translate(251,285)"/>
<path d="M0 0 C0.66 0 1.32 0 2 0 C7.93 12.14 13.29 24.34 18 37 C16.68 37 15.36 37 14 37 C11.28 31.75 9.07 26.62 7.22 21 C6.14 18.72 6.14 18.72 3.37 18.21 C2.59 18.14 1.81 18.07 1 18 C0.94 18.63 0.88 19.25 0.82 19.9 C0.73 20.72 0.65 21.53 0.56 22.38 C0.48 23.19 0.4 24 0.32 24.84 C0 27 0 27 -1 29 C-1.66 29 -2.32 29 -3 29 C-3.08 26.9 -3.14 24.79 -3.19 22.69 C-3.22 21.52 -3.26 20.34 -3.29 19.14 C-2.95 15.51 -2.41 15.41 0 13 C0.36 9.8 0.36 9.8 0.19 6.31 C0.15 4.54 0.15 4.54 0.11 2.74 C0.05 1.38 0.05 1.38 0 0 Z " fill="#474748" transform="translate(168,245)"/>
<path d="M0 0 C-1.98 0.33 -3.96 0.66 -6 1 C-5.34 1.33 -4.68 1.66 -4 2 C-4 2.66 -4 3.32 -4 4 C-4.88 4.33 -5.77 4.66 -6.68 5 C-17.01 9.09 -26.71 13.92 -32.12 24.19 C-33.66 27.74 -34.69 31.11 -35 35 C-36.13 33.4 -36.13 33.4 -37 31 C-36.24 27.94 -36.24 27.94 -34.88 24.56 C-34.44 23.45 -34 22.34 -33.55 21.19 C-31.18 16.32 -27.87 12.73 -24 9 C-24.99 8.67 -25.98 8.34 -27 8 C-22.41 2.37 -15.24 -0.95 -8.12 -1.94 C-4.79 -2.28 -2.9 -1.67 0 0 Z " fill="#A8D5E5" transform="translate(1116,173)"/>
<path d="M0 0 C13.53 0 27.06 0 41 0 C40.67 0.66 40.34 1.32 40 2 C37.69 2 35.38 2 33 2 C32.34 3.32 31.68 4.64 31 6 C7.99 7.03 7.99 7.03 0 1 C0 0.67 0 0.34 0 0 Z " fill="#48494A" transform="translate(418,644)"/>
<path d="M0 0 C0.66 0.33 1.32 0.66 2 1 C1.99 1.69 1.98 2.37 1.96 3.08 C1.96 3.98 1.95 4.88 1.94 5.81 C1.93 6.71 1.91 7.6 1.9 8.52 C1.89 11.13 1.89 11.13 3 14 C2.36 16.63 2.36 16.63 1.31 19.56 C0.98 20.53 0.64 21.5 0.3 22.5 C-1.19 25.36 -2.09 25.84 -5 27 C-7.35 29.21 -9.56 31.52 -11.75 33.89 C-16.84 39.25 -22.81 45.21 -30.41 46.37 C-32.62 46.38 -32.62 46.38 -36 46 C-36 45.67 -36 45.34 -36 45 C-35.22 44.77 -34.43 44.55 -33.62 44.31 C-20.35 39.51 -11.23 31.85 -5 19 C-4.08 16.59 -3.26 14.19 -2.54 11.71 C-2 10 -2 10 -1 9 C-0.77 7.49 -0.59 5.96 -0.44 4.44 C-0.35 3.61 -0.27 2.78 -0.18 1.93 C-0.09 0.98 -0.09 0.98 0 0 Z " fill="#A8D5E5" transform="translate(1168,214)"/>
<path d="M0 0 C0.66 1.32 1.32 2.64 2 4 C2.66 3.01 3.32 2.02 4 1 C7 5.12 7.37 7.96 7 13 C6.79 13.76 6.59 14.53 6.38 15.31 C6.25 15.87 6.13 16.43 6 17 C6.66 17.66 7.32 18.32 8 19 C8.38 21.56 8.51 24.1 8.66 26.69 C8.79 29.19 8.79 29.19 11 31 C11.12 33.62 11.12 33.62 11 36 C9.02 36.5 9.02 36.5 7 37 C-0.36 9.65 -0.36 9.65 0 0 Z " fill="#444546" transform="translate(44,169)"/>
<path d="M0 0 C1.87 -0.02 1.87 -0.02 3.77 -0.04 C4.96 -0.04 6.15 -0.04 7.38 -0.04 C8.47 -0.05 9.56 -0.05 10.68 -0.06 C13.44 0.19 13.44 0.19 16.44 2.19 C16.44 2.85 16.44 3.51 16.44 4.19 C13.74 5.54 11.63 5.32 8.62 5.32 C7.44 5.32 6.27 5.32 5.05 5.32 C3.2 5.32 3.2 5.32 1.31 5.31 C-0.51 5.32 -0.51 5.32 -2.36 5.32 C-8.52 5.32 -14.47 5.14 -20.56 4.19 C-15.44 -1.71 -7.18 0 0 0 Z " fill="#48494A" transform="translate(118.5625,281.8125)"/>
<path d="M0 0 C2.53 -0.36 2.53 -0.36 5.5 -0.31 C6.48 -0.31 7.46 -0.3 8.47 -0.3 C11 0 11 0 13 2 C13 2.99 13 3.98 13 5 C12.08 5.16 12.08 5.16 11.14 5.33 C9.92 5.57 9.92 5.57 8.69 5.81 C7.89 5.96 7.09 6.11 6.26 6.27 C1 7.97 -1.38 13.43 -4.28 17.82 C-6 20 -6 20 -9 21 C-8.44 16.4 -7.19 12.92 -5.06 8.81 C-4.54 7.79 -4.01 6.76 -3.47 5.71 C-2 3 -2 3 0 0 Z " fill="#3E3F40" transform="translate(153,234)"/>
<path d="M0 0 C1.58 0.01 3.16 0.02 4.75 0.04 C5.55 0.04 6.36 0.04 7.19 0.05 C9.19 0.06 11.19 0.08 13.18 0.1 C13.51 0.76 13.84 1.42 14.18 2.1 C13.48 2.15 12.79 2.2 12.07 2.25 C11.16 2.32 10.25 2.4 9.31 2.47 C8.4 2.54 7.5 2.61 6.57 2.68 C4 2.89 4 2.89 2.18 5.1 C2.18 6.42 2.18 7.74 2.18 9.1 C6.64 11.08 6.64 11.08 11.18 13.1 C11.18 13.43 11.18 13.76 11.18 14.1 C5.91 15.01 2.15 15.58 -2.82 13.1 C-5.7 9.68 -5.02 5.33 -4.82 1.1 C-3.82 0.1 -3.82 0.1 0 0 Z " fill="#494A4B" transform="translate(364.81640625,46.90234375)"/>
<path d="M0 0 C1.65 0.66 3.3 1.32 5 2 C4.61 7.46 2.8 10.12 -1 14 C-5.06 17.04 -10.05 18.92 -15 20 C-15.99 19.67 -16.98 19.34 -18 19 C-16.35 18.01 -14.7 17.02 -13 16 C-13.66 15.01 -14.32 14.02 -15 13 C-13.99 12.67 -13.99 12.67 -12.95 12.34 C-7.15 10.27 -3.83 8.78 -1 3 C-0.67 2.01 -0.34 1.02 0 0 Z " fill="#A8D5E5" transform="translate(1144,229)"/>
<path d="M0 0 C0.05 4.09 0.09 8.19 0.11 12.28 C0.12 13.67 0.13 15.07 0.15 16.46 C0.18 18.46 0.19 20.46 0.2 22.46 C0.21 23.67 0.22 24.87 0.23 26.11 C0 29 0 29 -2 31 C-5.75 26.25 -5.42 21.77 -5.31 16 C-5.32 15.11 -5.32 14.22 -5.32 13.3 C-5.25 4.95 -5.25 4.95 -3 1 C-1 0 -1 0 0 0 Z " fill="#515253" transform="translate(61,143)"/>
<path d="M0 0 C2.89 3.29 3.68 6.11 4.5 10.38 C5.63 16.17 5.63 16.17 6.93 21.93 C7.22 23.17 7.51 24.41 7.81 25.69 C8.09 26.83 8.36 27.96 8.64 29.14 C9 32 9 32 7 35 C3.8 32.45 3.49 30.29 3 26.31 C2.47 22.58 1.89 19.33 0.38 15.88 C-1.5 11.36 -1.47 6.82 -1 2 C-0.67 1.34 -0.34 0.68 0 0 Z " fill="#454647" transform="translate(61,176)"/>
<path d="M0 0 C0 0.66 0 1.32 0 2 C3.63 1.67 7.26 1.34 11 1 C7.31 2.85 4.68 3.56 0.69 4.31 C-5.98 5.67 -12.22 7.64 -18.62 9.91 C-21.76 10.92 -24.74 11.55 -28 12 C-21.02 4.15 -10.6 -0.84 0 0 Z " fill="#414243" transform="translate(140,59)"/>
<path d="M0 0 C4.58 -0.06 9.17 -0.09 13.75 -0.12 C15.05 -0.14 16.35 -0.16 17.7 -0.18 C18.95 -0.18 20.2 -0.19 21.48 -0.2 C22.64 -0.21 23.79 -0.22 24.98 -0.23 C27.9 -0.01 29.54 0.47 32 2 C29.18 3.41 26.83 3.11 23.68 3.1 C22.42 3.09 21.17 3.09 19.87 3.09 C18.55 3.08 17.23 3.07 15.88 3.06 C14.54 3.06 13.2 3.05 11.86 3.05 C8.57 3.04 5.29 3.02 2 3 C2.33 5.97 2.66 8.94 3 12 C4.98 12 6.96 12 9 12 C9 12.33 9 12.66 9 13 C2.85 13.1 2.85 13.1 1 13 C0 12 0 12 -0.1 9.28 C-0.09 8.18 -0.07 7.07 -0.06 5.94 C-0.05 4.83 -0.04 3.73 -0.04 2.59 C-0.02 1.74 -0.01 0.88 0 0 Z " fill="#151618" transform="translate(47,272)"/>
<path d="M0 0 C1.23 -0 2.47 -0.01 3.74 -0.01 C7.12 0.12 7.12 0.12 9.06 0.62 C11.3 1.17 13.31 1.28 15.62 1.33 C16.5 1.35 17.38 1.37 18.29 1.39 C19.23 1.41 20.17 1.42 21.14 1.44 C22.6 1.47 22.6 1.47 24.08 1.5 C27.18 1.57 30.28 1.63 33.38 1.69 C35.48 1.73 37.58 1.77 39.68 1.82 C44.83 1.93 49.98 2.03 55.12 2.12 C55.12 2.45 55.12 2.79 55.12 3.12 C34 3.45 12.88 3.79 -8.88 4.12 C-8.88 3.13 -8.88 2.14 -8.88 1.12 C-5.93 -0.35 -3.27 -0.01 0 0 Z " fill="#48494A" transform="translate(258.875,281.875)"/>
<path d="M0 0 C9.06 -0.12 17.98 0.16 27 1 C26.67 1.66 26.34 2.32 26 3 C24.11 2.97 24.11 2.97 22.19 2.94 C16.75 2.93 11.4 3.43 6 4 C6 5.32 6 6.64 6 8 C6.66 8.33 7.32 8.66 8 9 C5.69 9 3.38 9 1 9 C-0.48 6.04 -0.06 3.26 0 0 Z " fill="#4B4C4D" transform="translate(49,275)"/>
<path d="M0 0 C1.52 1.17 1.52 1.17 3 3 C3.11 5.45 3.11 5.45 2.75 8.25 C2.63 9.22 2.51 10.2 2.38 11.2 C2.26 12.12 2.13 13.05 2 14 C1.94 14.73 1.87 15.46 1.8 16.21 C1.62 18.06 1.62 18.06 1 21 C0.01 21.66 -0.98 22.32 -2 23 C-3.54 21.82 -3.54 21.82 -5 20 C-4.96 17.62 -4.96 17.62 -4.38 14.88 C-4.17 13.91 -3.96 12.94 -3.75 11.94 C-2.71 7.88 -1.46 3.93 0 0 Z " fill="#444546" transform="translate(49,117)"/>
<path d="M0 0 C4.5 0.09 9 0.2 13.51 0.32 C15.04 0.36 16.57 0.39 18.1 0.42 C20.3 0.47 22.51 0.53 24.71 0.59 C25.39 0.6 26.08 0.61 26.78 0.62 C30.38 0.73 31.92 0.94 35 3 C32.32 5.68 24.69 4.27 20.84 4.3 C18.64 4.31 16.44 4.36 14.23 4.4 C12.84 4.41 11.44 4.42 10.04 4.43 C8.76 4.44 7.49 4.45 6.17 4.47 C3 4 3 4 1.06 1.97 C0.71 1.32 0.36 0.67 0 0 Z " fill="#222224" transform="translate(100,268)"/>
<path d="M0 0 C0.97 0.19 1.94 0.37 2.94 0.56 C3.62 0.71 4.3 0.85 5 1 C5 1.33 5 1.66 5 2 C3.89 2.04 2.78 2.07 1.63 2.11 C-13.07 2.17 -13.07 2.17 -25.38 9.06 C-28.55 13.26 -30.31 18.06 -32 23 C-32.33 23 -32.66 23 -33 23 C-33.88 17.4 -31.59 13.99 -28.8 9.37 C-24.87 4.19 -20.85 2.32 -14.62 0.69 C-12.73 0.17 -12.73 0.17 -10.79 -0.36 C-6.83 -1.03 -3.92 -0.78 0 0 Z " fill="#A8D5E6" transform="translate(1130,187)"/>
<path d="M0 0 C0.99 0 1.98 0 3 0 C3.43 4.37 3.49 6.35 0.81 9.94 C-2 12 -2 12 -4.62 12.5 C-7.45 11.9 -8.42 11.42 -10 9 C-10.19 6.31 -10.19 6.31 -10 4 C-9.38 4.33 -8.76 4.66 -8.12 5 C-6.09 6.14 -6.09 6.14 -4 6 C-1.65 4.03 -1 3 0 0 Z " fill="#48494A" transform="translate(195,282)"/>
<path d="M0 0 C9.9 0 19.8 0 30 0 C29.01 1.49 29.01 1.49 28 3 C25.53 3.39 25.53 3.39 22.44 3.4 C21.33 3.4 20.23 3.41 19.08 3.41 C17.34 3.39 17.34 3.39 15.56 3.38 C14.4 3.39 13.25 3.4 12.05 3.41 C10.94 3.41 9.83 3.4 8.69 3.4 C7.67 3.4 6.65 3.39 5.6 3.39 C3 3 3 3 0 0 Z " fill="#48494A" transform="translate(103,272)"/>
<path d="M0 0 C2.88 0.12 2.88 0.12 6 1 C7.85 3.41 9 4.93 9 8 C9.99 9.49 9.99 9.49 11 11 C7.3 9.53 3.62 8.03 -0.06 6.5 C-1.08 6.08 -2.11 5.65 -3.16 5.22 C-5.49 4.22 -7.75 3.17 -10 2 C-6.92 1.09 -4.2 1 -1 1 C-0.67 0.67 -0.34 0.34 0 0 Z " fill="#A8D5E5" transform="translate(1143,172)"/>
<path d="M0 0 C0.33 0 0.66 0 1 0 C1 8.91 1 17.82 1 27 C0.34 27 -0.32 27 -1 27 C-3.58 21.85 -3.09 14.79 -3.25 9.12 C-3.28 8.24 -3.3 7.36 -3.33 6.45 C-2.94 3.52 -1.98 2.15 0 0 Z " fill="#424344" transform="translate(458,135)"/>
<path d="M0 0 C2 3 2 3 1.43 6.69 C1.07 8.13 0.7 9.57 0.31 11 C0.14 11.72 -0.04 12.45 -0.22 13.2 C-1.89 19.71 -1.89 19.71 -5 22 C-6.6 20.4 -6.25 18.72 -6.31 16.5 C-6.29 10.95 -4.61 6.83 -2 2 C-1.34 2 -0.68 2 0 2 C0 1.34 0 0.68 0 0 Z " fill="#454647" transform="translate(66,120)"/>
<path d="M0 0 C0.66 0.33 1.32 0.66 2 1 C-2.94 18.92 -2.94 18.92 -10 25 C-9.37 18.35 -9.37 18.35 -7.55 16.64 C-5.36 14.32 -5.14 12.1 -4.5 9 C-3.17 2.54 -3.17 2.54 0 0 Z " fill="#474849" transform="translate(154,259)"/>
<path d="M0 0 C2.76 2.64 5.18 5.51 7.62 8.44 C8.82 9.86 8.82 9.86 10.04 11.31 C11.79 13.71 12.6 15.11 13 18 C10.19 17.81 10.19 17.81 7 17 C5.38 14.81 5.38 14.81 4 12 C3.28 11.03 2.56 10.06 1.81 9.06 C-0.19 5.68 -0.37 3.86 0 0 Z " fill="#474849" transform="translate(88,253)"/>
<path d="M0 0 C-0.33 0.66 -0.66 1.32 -1 2 C-0.05 2.29 0.9 2.58 1.88 2.88 C5 4 5 4 7 6 C6.62 8.62 6.62 8.62 6 11 C5.01 11 4.02 11 3 11 C2.61 10.2 2.22 9.39 1.81 8.56 C0.31 5.86 0.31 5.86 -1.97 5.45 C-3.97 5.21 -5.99 5.1 -8 5 C-7.67 4.01 -7.34 3.02 -7 2 C-7.99 1.34 -8.98 0.68 -10 0 C-6.42 -1.24 -3.66 -0.75 0 0 Z " fill="#434143" transform="translate(466,641)"/>
<path d="M0 0 C0.99 0 1.98 0 3 0 C5.31 6.93 7.62 13.86 10 21 C5.03 19.34 3.54 15.06 1.25 10.56 C-0.07 6.8 -0.24 3.95 0 0 Z " fill="#464647" transform="translate(69,212)"/>
<path d="M0 0 C0.33 0 0.66 0 1 0 C1.33 5.28 1.66 10.56 2 16 C1.34 16 0.68 16 0 16 C0.01 16.65 0.02 17.3 0.04 17.98 C0.08 22.78 -0.01 27.28 -1 32 C-1.33 32 -1.66 32 -2 32 C-2 24.74 -2 17.48 -2 10 C-1.67 10.66 -1.34 11.32 -1 12 C-0.34 12 0.32 12 1 12 C0.34 11.01 -0.32 10.02 -1 9 C-0.98 6.74 -0.98 6.74 -0.62 4.31 C-0.51 3.5 -0.4 2.7 -0.29 1.86 C-0.19 1.25 -0.1 0.63 0 0 Z " fill="#333234" transform="translate(471,136)"/>
<path d="M0 0 C2.31 0.33 4.62 0.66 7 1 C7.33 1.99 7.66 2.98 8 4 C7.67 4.66 7.34 5.32 7 6 C4.28 6.63 4.28 6.63 0.94 7.12 C-0.17 7.29 -1.27 7.46 -2.41 7.63 C-3.69 7.81 -3.69 7.81 -5 8 C-4.01 6.02 -3.02 4.04 -2 2 C-1.34 2 -0.68 2 0 2 C0 1.34 0 0.68 0 0 Z " fill="#404042" transform="translate(230,212)"/>
<path d="M0 0 C1.47 4.5 -0.14 7.58 -1.94 11.75 C-2.23 12.45 -2.52 13.14 -2.82 13.86 C-3.54 15.58 -4.27 17.29 -5 19 C-5.66 19 -6.32 19 -7 19 C-7.48 11.02 -4.35 6.3 0 0 Z " fill="#454647" transform="translate(217,275)"/>
<path d="M0 0 C4.56 0.54 7.24 2.47 11 5 C14.22 6.24 14.22 6.24 17 7 C17 7.33 17 7.66 17 8 C13.6 8.16 11.12 8.04 7.88 6.94 C4.82 5.94 3.96 6.18 1 7 C0.01 6.34 -0.98 5.68 -2 5 C-2 4.34 -2 3.68 -2 3 C-1.34 3 -0.68 3 0 3 C0 2.01 0 1.02 0 0 Z " fill="#A8D5E5" transform="translate(1094,252)"/>
<path d="M0 0 C0.66 0 1.32 0 2 0 C3.98 5.61 5.96 11.22 8 17 C7.01 17 6.02 17 5 17 C0.34 11.93 0.24 6.68 0 0 Z " fill="#464748" transform="translate(252,253)"/>
<path d="M0 0 C0.33 0 0.66 0 1 0 C0.95 0.57 0.91 1.14 0.86 1.73 C0.44 11.13 3.47 19.4 7 28 C1.37 23.62 -0.43 17.83 -2 11 C-2.22 6.73 -1.83 3.88 0 0 Z " fill="#A8D5E6" transform="translate(1096,211)"/>
<path d="M0 0 C2 3 2 3 1.62 5.19 C1.42 5.79 1.21 6.38 1 7 C0.34 7 -0.32 7 -1 7 C-1 6.34 -1 5.68 -1 5 C-1.66 5 -2.32 5 -3 5 C-3.33 4.34 -3.66 3.68 -4 3 C-4.99 5.31 -5.98 7.62 -7 10 C-7.66 10 -8.32 10 -9 10 C-9.25 6.69 -9.25 6.69 -9 3 C-6.36 -0.03 -3.94 -0.62 0 0 Z " fill="#474849" transform="translate(235,246)"/>
<path d="M0 0 C0.62 0.47 1.24 0.95 1.88 1.44 C6.16 3.58 10.27 3.73 15 4 C15.33 4.99 15.66 5.98 16 7 C5.44 7.18 5.44 7.18 1 6 C0.67 4.02 0.34 2.04 0 0 Z " fill="#515253" transform="translate(183,318)"/>
<path d="M0 0 C8.58 6.86 8.58 6.86 9.51 11.58 C9.6 12.9 9.6 12.9 9.69 14.25 C9.79 15.59 9.79 15.59 9.89 16.95 C9.92 17.63 9.96 18.3 10 19 C9.34 19 8.68 19 8 19 C7.84 18.44 7.68 17.89 7.52 17.31 C5.96 12.21 4 8.03 0.99 3.63 C0 2 0 2 0 0 Z " fill="#A8D5E6" transform="translate(1158,188)"/>
<path d="M0 0 C2.27 -0.08 4.54 -0.14 6.81 -0.19 C8.08 -0.22 9.34 -0.26 10.64 -0.29 C14 0 14 0 17 3 C11.39 3 5.78 3 0 3 C0 2.01 0 1.02 0 0 Z " fill="#313032" transform="translate(360,44)"/>
<path d="M0 0 C2.1 -0.08 4.21 -0.14 6.31 -0.19 C7.48 -0.22 8.66 -0.26 9.86 -0.29 C13 0 13 0 16 3 C10.39 3 4.78 3 -1 3 C-0.67 2.01 -0.34 1.02 0 0 Z " fill="#7C8282" transform="translate(434,658)"/>
<path d="M0 0 C0.33 0 0.66 0 1 0 C0.4 7.08 -1.58 14.11 -7 19 C-6.31 15.15 -5.28 11.52 -4.06 7.81 C-3.72 6.77 -3.38 5.72 -3.04 4.64 C-2 2 -2 2 0 0 Z " fill="#464748" transform="translate(208,296)"/>
<path d="M0 0 C-2 3 -2 3 -4.16 3.51 C-4.98 3.57 -5.79 3.63 -6.62 3.69 C-7.85 3.79 -7.85 3.79 -9.1 3.89 C-9.73 3.92 -10.35 3.96 -11 4 C-11.66 3.01 -12.32 2.02 -13 1 C-4.74 -2.81 -4.74 -2.81 0 0 Z " fill="#474849" transform="translate(121,52)"/>
<path d="M0 0 C-2.91 4.32 -2.91 4.32 -5 6 C-8.81 5.88 -8.81 5.88 -12 5 C-11.34 4.67 -10.68 4.34 -10 4 C-9.67 3.01 -9.34 2.02 -9 1 C-6.04 -0.48 -3.26 -0.06 0 0 Z " fill="#3D3B3D" transform="translate(405,649)"/>
<path d="M0 0 C2.31 0.33 4.62 0.66 7 1 C7 1.66 7 2.32 7 3 C5.02 3 3.04 3 1 3 C1 5.64 1 8.28 1 11 C0.34 11 -0.32 11 -1 11 C-2.23 4.6 -2.23 4.6 -1.06 1.56 C-0.71 1.05 -0.36 0.53 0 0 Z " fill="#2E2E30" transform="translate(109,297)"/>
<path d="M0 0 C0.83 2.38 1.12 3.63 0.33 6.07 C-0.03 6.75 -0.38 7.43 -0.75 8.12 C-1.1 8.81 -1.44 9.49 -1.8 10.2 C-3 12 -3 12 -6 14 C-4.67 4.83 -4.67 4.83 -1.88 1.38 C-1.26 0.92 -0.64 0.47 0 0 Z " fill="#464748" transform="translate(73,105)"/>
<path d="M0 0 C0.33 0.66 0.66 1.32 1 2 C-2.94 4.32 -6.69 6.43 -11 8 C-10.67 4.95 -9.97 3.97 -7.75 1.75 C-4.79 -0.13 -3.42 -0.39 0 0 Z " fill="#474849" transform="translate(104,75)"/>
<path d="M0 0 C0.66 0 1.32 0 2 0 C3.59 3.19 3.1 6.63 3.06 10.12 C3.06 10.88 3.05 11.63 3.05 12.41 C3.04 14.27 3.02 16.14 3 18 C2.67 18 2.34 18 2 18 C2 15.69 2 13.38 2 11 C1.34 11 0.68 11 0 11 C0 7.37 0 3.74 0 0 Z " fill="#303032" transform="translate(250,480)"/>
<path d="M0 0 C5.46 2.48 8.78 7.1 12 12 C12 12.66 12 13.32 12 14 C7.71 12.41 5.68 9.57 3 6 C3 5.34 3 4.68 3 4 C2.01 3.34 1.02 2.68 0 2 C0 1.34 0 0.68 0 0 Z " fill="#373839" transform="translate(442,79)"/>
<path d="M0 0 C2.51 5.03 2.97 7.22 2.16 12.81 C1.85 15.18 1.85 15.18 3 18 C2.34 18 1.68 18 1 18 C-2.37 4.74 -2.37 4.74 0 0 Z " fill="#474748" transform="translate(469,130)"/>
<path d="M0 0 C3.37 2.25 3.84 3.24 5 7 C5 8.32 5 9.64 5 11 C3.68 10.67 2.36 10.34 1 10 C0.67 6.7 0.34 3.4 0 0 Z " fill="#474849" transform="translate(241,226)"/>
<path d="M0 0 C0.99 0.33 1.98 0.66 3 1 C2.34 1 1.68 1 1 1 C0.81 1.71 0.61 2.42 0.41 3.15 C0.15 4.07 -0.11 4.99 -0.38 5.94 C-0.63 6.85 -0.89 7.77 -1.15 8.71 C-2 11 -2 11 -4 12 C-5.12 8.54 -5.08 7.2 -3.69 3.75 C-2 1 -2 1 0 0 Z " fill="#454547" transform="translate(227,213)"/>
<path d="M0 0 C1.49 0.99 1.49 0.99 3 2 C3 2.66 3 3.32 3 4 C3.62 4.29 4.24 4.58 4.88 4.88 C7 6 7 6 9 8 C9 8.99 9 9.98 9 11 C8.34 11 7.68 11 7 11 C7 10.34 7 9.68 7 9 C6.4 8.75 5.8 8.5 5.19 8.25 C2.66 6.81 1.5 5.47 0 3 C0 2.01 0 1.02 0 0 Z " fill="#464748" transform="translate(433,70)"/>
<path d="M0 0 C1.18 0.1 1.18 0.1 2.38 0.2 C3.4 0.53 3.4 0.53 4.44 0.88 C5.1 2.19 5.76 3.51 6.44 4.88 C1.82 3.88 -2.8 2.89 -7.56 1.88 C-4.32 -0.29 -3.68 -0.38 0 0 Z " fill="#242527" transform="translate(323.5625,274.125)"/>
<path d="M0 0 C1.56 1.19 1.56 1.19 3 3 C2.76 6.34 2.39 7.61 0 10 C-0.66 9.67 -1.32 9.34 -2 9 C-1.12 2.25 -1.12 2.25 0 0 Z " fill="#474849" transform="translate(49,117)"/>
<path d="M0 0 C0 0.99 0 1.98 0 3 C-1.32 3 -2.64 3 -4 3 C-4 3.66 -4 4.32 -4 5 C-10.75 8.88 -10.75 8.88 -13 10 C-11.55 6.37 -9.76 4.85 -6.5 2.75 C-5.31 1.97 -5.31 1.97 -4.09 1.17 C-2 0 -2 0 0 0 Z " fill="#434244" transform="translate(101,57)"/>
<path d="M0 0 C2 1.19 2 1.19 4 3 C4.25 5.69 4.25 5.69 4 8 C2.68 8.33 1.36 8.66 0 9 C-1.12 3.38 -1.12 3.38 0 0 Z " fill="#474849" transform="translate(51,197)"/>
<path d="M0 0 C4.22 1.56 6.23 4.59 9 8 C9.99 8.66 10.98 9.32 12 10 C11.67 10.66 11.34 11.32 11 12 C9.35 10.57 7.7 9.13 6.06 7.69 C5.15 6.89 4.23 6.09 3.29 5.26 C1 3 1 3 0 0 Z " fill="#151618" transform="translate(314,586)"/>
<path d="M0 0 C0 4.39 -2.13 5.77 -5 9 C-6.65 8.67 -8.3 8.34 -10 8 C-9.67 7.01 -9.34 6.02 -9 5 C-9 5.66 -9 6.32 -9 7 C-7.69 6.02 -6.37 5.04 -5.06 4.06 C-4.33 3.52 -3.6 2.97 -2.85 2.41 C-1.09 1.13 -1.09 1.13 0 0 Z " fill="#434143" transform="translate(469,168)"/>
<path d="M0 0 C5.22 -0.18 9.07 0.03 14 2 C10.6 4.09 7.95 4.18 4 4 C4 3.34 4 2.68 4 2 C2.68 1.34 1.36 0.68 0 0 Z " fill="#444446" transform="translate(381,47)"/>
<path d="M0 0 C-0.62 6.52 -0.62 6.52 -2.56 8.94 C-3.04 9.29 -3.51 9.64 -4 10 C-4.66 9.67 -5.32 9.34 -6 9 C-5.67 7.35 -5.34 5.7 -5 4 C-4.34 4 -3.68 4 -3 4 C-3 3.01 -3 2.02 -3 1 C-1 0 -1 0 0 0 Z " fill="#48494A" transform="translate(211,256)"/>
<path d="M0 0 C0.99 0.33 1.98 0.66 3 1 C2.67 2.65 2.34 4.3 2 6 C0.68 6.33 -0.64 6.66 -2 7 C-1.34 4.69 -0.68 2.38 0 0 Z M-3 7 C-2.01 7.5 -2.01 7.5 -1 8 C-1.66 9.32 -2.32 10.64 -3 12 C-3 10.35 -3 8.7 -3 7 Z " fill="#444345" transform="translate(210,250)"/>
<path d="M0 0 C0 0.66 0 1.32 0 2 C-9.41 2.18 -9.41 2.18 -14 1 C-14 0.67 -14 0.34 -14 0 C-4.59 -1.33 -4.59 -1.33 0 0 Z " fill="#1D1D1F" transform="translate(156,45)"/>
</svg>
